<?xml version="1.0" encoding="UTF-8"?> <svg xmlns="http://www.w3.org/2000/svg" width="172" height="169" viewBox="0 0 172 169" fill="none"> <path d="M166.527 91.9372C167.786 91.5842 168.666 90.6872 168.759 88.9624C168.858 87.1242 167.888 85.7061 166.413 85.6264C165.21 85.5613 164.366 86.2326 163.905 87.8123L163.486 89.2463C163.234 90.1147 162.792 90.5061 162.191 90.4736C161.442 90.4331 160.872 89.6057 160.939 88.3575C160.999 87.2625 161.507 86.6015 162.456 86.4138L162.207 85.1258C160.709 85.3577 159.854 86.5349 159.758 88.3164C159.649 90.3418 160.68 91.7803 162.184 91.8616C163.398 91.9273 164.205 91.2085 164.669 89.6745L165.057 88.3981C165.368 87.3793 165.739 86.9328 166.409 86.969C167.158 87.0095 167.659 87.8332 167.602 88.8999C167.538 90.0686 166.866 90.5159 166.252 90.716L166.527 91.9372Z" fill="#9DFC03"></path> <path d="M164.503 96.0183C166.003 96.2807 166.687 97.3865 166.458 98.6906C166.241 99.9331 165.326 100.546 163.961 100.307L158.588 99.3673L158.357 100.688L163.819 101.644C166.03 102.03 167.271 101.036 167.578 99.2787C167.815 97.9243 167.385 97.0531 166.566 96.4944L166.585 96.3825L170.794 97.1187L171.025 95.7979L159.563 93.7928L159.332 95.1137L164.503 96.0183Z" fill="#9DFC03"></path> <path d="M156.632 106.275C155.936 108.533 157.184 110.582 159.769 111.378C162.375 112.181 164.56 111.189 165.255 108.93C165.951 106.671 164.703 104.622 162.097 103.819C159.512 103.023 157.328 104.016 156.632 106.275ZM157.783 106.629C158.312 104.913 160.029 104.586 161.702 105.101C163.374 105.616 164.632 106.859 164.104 108.575C163.576 110.291 161.836 110.612 160.164 110.097C158.491 109.582 157.255 108.345 157.783 106.629Z" fill="#9DFC03"></path> <path d="M154.3 113.456L153.737 114.648L158.985 119.237L158.927 119.36L152.049 118.224L151.486 119.416L158.242 125.546L158.844 124.272L153.628 119.723L153.667 119.641L160.474 120.82L161.086 119.525L155.839 114.987L155.878 114.904L162.726 116.052L163.327 114.777L154.3 113.456Z" fill="#9DFC03"></path> <path d="M149.521 122.786L148.805 123.92L153.475 126.867C154.475 127.498 154.708 128.747 154.029 129.823C153.838 130.126 153.583 130.402 153.515 130.467L154.668 131.195C154.76 131.071 154.957 130.779 155.063 130.611C155.621 129.727 155.607 128.643 155.046 127.913L155.095 127.836L156.21 128.539L156.901 127.444L149.521 122.786Z" fill="#9DFC03"></path> <path d="M144.229 130.157C143.14 131.556 143.043 133.123 143.832 134.255L144.915 133.457C144.407 132.629 144.534 131.727 145.18 130.898C146.147 129.656 147.616 129.425 149.129 130.524L145.236 135.522L145.684 135.871C148.248 137.868 150.314 137.029 151.431 135.594C152.884 133.729 152.377 131.347 150.261 129.699C148.146 128.051 145.779 128.167 144.229 130.157ZM150.044 131.236C151.059 132.142 151.424 133.644 150.481 134.854C149.587 136.001 148.154 136.066 146.989 135.159L150.044 131.236Z" fill="#9DFC03"></path> <path d="M138.083 137.119C136.83 138.372 136.54 139.915 137.183 141.136L138.356 140.477C137.955 139.594 138.192 138.714 138.935 137.97C140.048 136.858 141.534 136.809 142.9 138.087L138.421 142.567L138.822 142.968C141.121 145.266 143.274 144.688 144.56 143.402C146.231 141.731 146.022 139.304 144.126 137.408C142.229 135.512 139.867 135.335 138.083 137.119ZM143.72 138.907C144.616 139.931 144.793 141.466 143.708 142.551C142.679 143.579 141.249 143.467 140.204 142.422L143.72 138.907Z" fill="#9DFC03"></path> <path d="M140.353 151.013L141.381 150.151L133.901 141.238L132.874 142.099L140.353 151.013Z" fill="#9DFC03"></path> <path d="M129.488 149.699C129.022 150.013 128.897 150.652 129.211 151.119C129.525 151.585 130.164 151.71 130.63 151.396C131.097 151.082 131.222 150.443 130.908 149.977C130.594 149.51 129.955 149.385 129.488 149.699Z" fill="#9DFC03"></path> <path d="M118.465 158.957C119.388 159.884 120.6 160.214 122.151 159.453C123.804 158.642 124.568 157.103 123.917 155.777C123.387 154.696 122.389 154.286 120.785 154.655L119.329 154.99C118.448 155.194 117.891 154.999 117.625 154.458C117.295 153.785 117.739 152.884 118.861 152.333C119.846 151.85 120.671 151.971 121.298 152.708L122.301 151.862C121.367 150.668 119.922 150.497 118.321 151.282C116.5 152.175 115.748 153.778 116.411 155.13C116.946 156.222 117.968 156.575 119.533 156.231L120.836 155.946C121.877 155.721 122.448 155.827 122.743 156.429C123.074 157.102 122.6 157.942 121.641 158.412C120.59 158.928 119.871 158.559 119.396 158.121L118.465 158.957Z" fill="#9DFC03"></path> <path d="M113.95 159.139C114.453 160.576 113.821 161.712 112.571 162.149C111.38 162.566 110.399 162.066 109.941 160.757L108.141 155.609L106.875 156.051L108.706 161.286C109.447 163.404 110.92 164.003 112.604 163.414C113.902 162.96 114.453 162.159 114.54 161.172L114.648 161.134L116.058 165.167L117.324 164.725L113.483 153.741L112.217 154.183L113.95 159.139Z" fill="#9DFC03"></path> <path d="M101.146 157.245C98.833 157.732 97.6463 159.817 98.2036 162.463C98.7657 165.132 100.692 166.561 103.005 166.074C105.318 165.587 106.505 163.502 105.943 160.833C105.386 158.187 103.459 156.758 101.146 157.245ZM101.394 158.423C103.151 158.053 104.27 159.397 104.631 161.109C104.991 162.822 104.514 164.525 102.757 164.895C101 165.265 99.8764 163.899 99.5158 162.187C99.1551 160.474 99.6372 158.793 101.394 158.423Z" fill="#9DFC03"></path> <path d="M93.6377 158.699L92.3223 158.786L90.8568 165.601L90.7207 165.61L88.3763 159.045L87.0609 159.131L84.9796 168.014L86.3856 167.922L87.8315 161.153L87.9222 161.147L90.1956 167.671L91.6243 167.577L93.046 160.788L93.1367 160.782L95.457 167.326L96.863 167.233L93.6377 158.699Z" fill="#9DFC03"></path> <path d="M82.9674 159.04L81.6284 158.968L81.3302 164.482C81.2664 165.662 80.2893 166.474 79.0184 166.406C78.661 166.386 78.2959 166.298 78.2064 166.271L78.1327 167.632C78.2853 167.652 78.6364 167.682 78.835 167.693C79.8789 167.75 80.8186 167.209 81.183 166.363L81.2737 166.368L81.2026 167.685L82.4961 167.754L82.9674 159.04Z" fill="#9DFC03"></path> <path d="M73.9352 157.987C72.1835 157.715 70.7674 158.392 70.1609 159.632L71.3852 160.19C71.8616 159.344 72.7117 159.016 73.7504 159.178C75.3057 159.419 76.222 160.591 75.997 162.447L69.7368 161.475L69.6496 162.037C69.151 165.248 70.8891 166.645 72.6858 166.924C75.0214 167.287 76.8569 165.686 77.2684 163.036C77.6798 160.386 76.4281 158.374 73.9352 157.987ZM75.8192 163.593C75.521 164.921 74.3865 165.969 72.8706 165.734C71.4332 165.511 70.6798 164.29 70.9064 162.83L75.8192 163.593Z" fill="#9DFC03"></path> <path d="M64.8813 155.981C63.1775 155.491 61.6877 155.986 60.9305 157.14L62.0751 157.847C62.6538 157.067 63.5384 156.848 64.5487 157.139C66.0613 157.573 66.8235 158.851 66.3673 160.664L60.2785 158.915L60.1216 159.461C59.224 162.585 60.7732 164.188 62.5206 164.691C64.7924 165.343 66.8142 163.985 67.5548 161.408C68.2955 158.83 67.3059 156.678 64.8813 155.981ZM66.0472 161.778C65.5848 163.059 64.3277 163.957 62.8533 163.533C61.4553 163.131 60.861 161.825 61.269 160.406L66.0472 161.778Z" fill="#9DFC03"></path> <path d="M53.8193 164.68L55.0693 165.165L59.2796 154.317L58.0295 153.832L53.8193 164.68Z" fill="#9DFC03"></path> <path d="M49.7636 154.541C49.2633 154.284 48.6436 154.483 48.3866 154.984C48.1296 155.484 48.3287 156.104 48.829 156.361C49.3294 156.618 49.9491 156.419 50.2061 155.918C50.4631 155.418 50.264 154.798 49.7636 154.541Z" fill="#9DFC03"></path> <path d="M36.329 149.328C35.9586 150.582 36.2513 151.804 37.6628 152.8C39.1672 153.861 40.8841 153.792 41.7355 152.585C42.4298 151.601 42.3098 150.529 41.2166 149.299L40.2244 148.182C39.6226 147.507 39.526 146.924 39.8731 146.432C40.3054 145.819 41.3091 145.776 42.3306 146.497C43.2267 147.129 43.5168 147.91 43.1714 148.814L44.3949 149.288C44.9942 147.896 44.4511 146.546 42.9932 145.518C41.3356 144.349 39.5687 144.458 38.7009 145.689C38.0001 146.683 38.1802 147.748 39.233 148.957L40.1082 149.963C40.8059 150.768 40.9869 151.32 40.6005 151.868C40.1682 152.481 39.2038 152.468 38.3309 151.852C37.3744 151.178 37.353 150.37 37.5098 149.744L36.329 149.328Z" fill="#9DFC03"></path> <path d="M34.0259 145.5C33.0094 146.634 31.7095 146.628 30.7238 145.745C29.7846 144.903 29.7487 143.802 30.6741 142.77L34.3152 138.709L33.3168 137.813L29.615 141.942C28.1169 143.614 28.3036 145.193 29.632 146.384C30.6558 147.302 31.6227 147.398 32.5304 146.998L32.615 147.074L29.7628 150.255L30.7612 151.15L38.5289 142.486L37.5304 141.591L34.0259 145.5Z" fill="#9DFC03"></path> <path d="M29.505 133.398C27.953 131.616 25.5542 131.595 23.5144 133.371C21.4574 135.162 21.1479 137.54 22.7 139.323C24.252 141.106 26.6508 141.127 28.7077 139.336C30.7475 137.56 31.057 135.181 29.505 133.398ZM28.5965 134.189C29.7755 135.544 29.1471 137.175 27.8272 138.325C26.5074 139.474 24.7874 139.886 23.6084 138.532C22.4295 137.178 23.075 135.531 24.3949 134.382C25.7147 133.233 27.4176 132.835 28.5965 134.189Z" fill="#9DFC03"></path> <path d="M24.5502 127.502L23.8385 126.392L17.1644 128.405L17.0907 128.291L21.7034 123.064L20.9917 121.954L12.2101 124.428L12.9708 125.614L19.5944 123.607L19.6435 123.683L15.0323 128.828L15.8054 130.033L22.4358 127.994L22.4849 128.071L17.8791 133.266L18.6399 134.452L24.5502 127.502Z" fill="#9DFC03"></path> <path d="M19.2393 118.643L18.6533 117.437L13.6859 119.851C12.6229 120.367 11.4388 119.906 10.8827 118.761C10.7262 118.44 10.6262 118.078 10.6069 117.986L9.38034 118.582C9.43716 118.725 9.58088 119.047 9.66779 119.225C10.1247 120.166 11.0534 120.725 11.9693 120.634L12.009 120.716L10.8234 121.292L11.3895 122.457L19.2393 118.643Z" fill="#9DFC03"></path> <path d="M15.7647 110.239C15.1544 108.575 13.8763 107.664 12.4978 107.734L12.6024 109.075C13.5733 109.082 14.2719 109.667 14.6338 110.654C15.1757 112.132 14.5944 113.501 12.8608 114.203L10.6798 108.255L10.1464 108.451C7.09506 109.569 6.71456 111.767 7.3405 113.474C8.15422 115.693 10.4438 116.523 12.9617 115.6C15.4796 114.677 16.6332 112.608 15.7647 110.239ZM11.7726 114.602C10.4664 114.984 8.99955 114.499 8.47141 113.059C7.97066 111.693 8.67409 110.443 10.0611 109.934L11.7726 114.602Z" fill="#9DFC03"></path> <path d="M13.1301 101.417C12.7318 99.6893 11.577 98.6261 10.2006 98.5237L10.1374 99.8677C11.0998 99.9957 11.7202 100.663 11.9564 101.687C12.31 103.221 11.5628 104.507 9.75534 104.988L8.33185 98.8147L7.7782 98.9423C4.6113 99.6726 3.96021 101.805 4.36874 103.577C4.89984 105.88 7.06818 106.989 9.68142 106.387C12.2947 105.784 13.697 103.875 13.1301 101.417ZM8.62588 105.248C7.28223 105.465 5.88719 104.801 5.54249 103.306C5.21566 101.889 6.0693 100.736 7.5088 100.404L8.62588 105.248Z" fill="#9DFC03"></path> <path d="M0.144964 95.9933L0.330322 97.3213L11.855 95.7128L11.6696 94.3847L0.144964 95.9933Z" fill="#9DFC03"></path> <path d="M7.02164 87.6324C7.00211 87.0703 6.52618 86.6263 5.96401 86.6458C5.40185 86.6654 4.95789 87.1413 4.97742 87.7035C4.99696 88.2656 5.47289 88.7096 6.03505 88.6901C6.59721 88.6705 7.04118 88.1946 7.02164 87.6324Z" fill="#9DFC03"></path> <path d="M5.04865 72.8257C3.77193 73.1102 2.8456 73.9586 2.65952 75.6758C2.4612 77.506 3.35366 78.9743 4.82234 79.1334C6.01987 79.2632 6.89912 78.6384 7.44455 77.0858L7.94018 75.6765C8.23841 74.823 8.7011 74.4559 9.29987 74.5208C10.0455 74.6016 10.5699 75.4585 10.4352 76.7012C10.3171 77.7915 9.77416 78.4241 8.81641 78.5604L8.99563 79.86C10.5036 79.7091 11.4204 78.5797 11.6126 76.806C11.8311 74.7894 10.8784 73.2974 9.38144 73.1351C8.17261 73.0042 7.328 73.6785 6.78182 75.1852L6.32593 76.4388C5.96033 77.4394 5.56556 77.8652 4.89901 77.793C4.15338 77.7122 3.69679 76.8626 3.81187 75.8006C3.93796 74.637 4.63395 74.2266 5.25781 74.0599L5.04865 72.8257Z" fill="#9DFC03"></path> <path d="M7.26996 68.9604C5.78617 68.6182 5.16293 67.4774 5.46039 66.1874C5.74381 64.9583 6.69 64.3952 8.04091 64.7067L13.356 65.9323L13.6573 64.6256L8.25362 63.3796C6.06669 62.8753 4.77433 63.8018 4.37346 65.5403C4.06451 66.8801 4.44752 67.7731 5.2359 68.3747L5.21037 68.4855L1.0469 67.5254L0.745605 68.832L12.0844 71.4466L12.3857 70.14L7.26996 68.9604Z" fill="#9DFC03"></path> <path d="M15.6368 59.246C16.4505 57.0268 15.3125 54.915 12.7733 53.9839C10.2127 53.045 7.97934 53.9206 7.16562 56.1397C6.3519 58.3589 7.4899 60.4707 10.0505 61.4096C12.5897 62.3407 14.8231 61.4651 15.6368 59.246ZM14.5059 58.8313C13.8878 60.517 12.1551 60.7531 10.5121 60.1506C8.86907 59.5482 7.67842 58.2401 8.29653 56.5544C8.91465 54.8687 10.6686 54.6404 12.3117 55.2429C13.9547 55.8454 15.124 57.1456 14.5059 58.8313Z" fill="#9DFC03"></path> <path d="M18.3953 52.0584L19.0235 50.8995L14.0389 46.0262L14.1039 45.9063L20.908 47.4229L21.5361 46.264L15.1307 39.7674L14.4592 41.0062L19.4146 45.8379L19.3713 45.9178L12.6397 44.3629L11.9574 45.6217L16.9436 50.4443L16.9003 50.5242L10.127 48.9985L9.45557 50.2373L18.3953 52.0584Z" fill="#9DFC03"></path> <path d="M23.5216 43.2181L24.2945 42.1223L19.7813 38.9392C18.8156 38.258 18.6469 36.9988 19.3804 35.9587C19.5867 35.6662 19.8553 35.4037 19.9263 35.3425L18.8119 34.5565C18.7142 34.6754 18.5019 34.9567 18.3873 35.1192C17.7847 35.9735 17.7436 37.057 18.266 37.8148L18.2136 37.8891L17.1364 37.1293L16.3898 38.188L23.5216 43.2181Z" fill="#9DFC03"></path> <path d="M29.0853 36.2222C30.2445 34.881 30.4209 33.3213 29.6911 32.1498L28.5689 32.8922C29.0338 33.7446 28.8613 34.6393 28.1739 35.4346C27.1448 36.6254 25.6657 36.7814 24.2105 35.6064L28.353 30.8132L27.9232 30.4417C25.4642 28.3166 23.3585 29.05 22.1696 30.4256C20.624 32.2139 21.0087 34.619 23.0377 36.3726C25.0668 38.1262 27.4357 38.1309 29.0853 36.2222ZM23.3336 34.8485C22.3656 33.8918 22.0778 32.3739 23.0809 31.2132C24.032 30.1127 25.4667 30.121 26.5844 31.087L23.3336 34.8485Z" fill="#9DFC03"></path> <path d="M35.8345 29.3101C37.1545 28.1268 37.5274 26.6021 36.952 25.3475L35.7447 25.9415C36.0977 26.8459 35.8131 27.7116 35.0304 28.4133C33.8586 29.4639 32.3716 29.431 31.0773 28.0809L35.7944 23.8519L35.4151 23.4288C33.2456 21.009 31.0638 21.4693 29.71 22.683C27.9501 24.2608 28.0265 26.6952 29.8167 28.6921C31.6069 30.6889 33.9561 30.9941 35.8345 29.3101ZM30.3035 27.2178C29.4647 26.146 29.3718 24.6039 30.5141 23.5799C31.5971 22.6089 33.0192 22.7992 34.0053 23.8991L30.3035 27.2178Z" fill="#9DFC03"></path> <path d="M34.3423 15.2843L33.2695 16.0889L40.2513 25.398L41.324 24.5935L34.3423 15.2843Z" fill="#9DFC03"></path> <path d="M45.1262 17.1714C45.6094 16.8835 45.7693 16.2525 45.4814 15.7693C45.1935 15.286 44.5626 15.1262 44.0793 15.4141C43.5961 15.702 43.4362 16.3329 43.7241 16.8161C44.012 17.2994 44.6429 17.4592 45.1262 17.1714Z" fill="#9DFC03"></path> <path d="M56.5173 8.57467C55.6476 7.59767 54.4558 7.20107 52.8649 7.87394C51.1695 8.59107 50.3208 10.0851 50.8963 11.4457C51.3655 12.5551 52.3392 13.0193 53.9609 12.7405L55.4334 12.4879C56.3242 12.3332 56.87 12.5589 57.1046 13.1136C57.3968 13.8043 56.9032 14.6793 55.7519 15.1663C54.742 15.5935 53.9251 15.4269 53.3401 14.6565L52.2918 15.4453C53.1573 16.6894 54.5901 16.9409 56.2332 16.2459C58.1014 15.4557 58.9414 13.8974 58.3549 12.5107C57.8812 11.3908 56.8812 10.981 55.2991 11.2368L53.982 11.4484C52.93 11.6158 52.3659 11.4781 52.1047 10.8606C51.8125 10.1698 52.3327 9.35758 53.3165 8.94146C54.3945 8.48551 55.0916 8.89394 55.5408 9.35788L56.5173 8.57467Z" fill="#9DFC03"></path> <path d="M61.1162 8.58606C60.6956 7.12255 61.3909 6.02418 62.6633 5.65858C63.8756 5.31024 64.8271 5.8645 65.2099 7.19695L66.7163 12.4394L68.005 12.0691L66.4736 6.73927C65.8538 4.58223 64.4167 3.90148 62.702 4.39418C61.3805 4.7739 60.7854 5.54198 60.6417 6.52324L60.5324 6.55462L59.3525 2.44805L58.0637 2.81836L61.2772 14.0022L62.566 13.6319L61.1162 8.58606Z" fill="#9DFC03"></path> <path d="M73.7985 11.1696C76.1342 10.807 77.4308 8.78872 77.0159 6.11619C76.5975 3.4212 74.75 1.89107 72.4143 2.25368C70.0787 2.61629 68.782 4.63455 69.2004 7.32954C69.6153 10.0021 71.4629 11.5322 73.7985 11.1696ZM73.6137 9.97931C71.8395 10.2548 70.7939 8.85311 70.5255 7.12383C70.257 5.39454 70.8249 3.71941 72.5991 3.44396C74.3733 3.16852 75.4224 4.59262 75.6909 6.3219C75.9593 8.05119 75.3879 9.70387 73.6137 9.97931Z" fill="#9DFC03"></path> <path d="M81.322 10.1119L82.6401 10.0966L84.4714 3.37044L84.6078 3.36886L86.5944 10.0509L87.9125 10.0356L90.4703 1.27811L89.0613 1.29442L87.2522 7.97491L87.1613 7.97597L85.2434 1.33864L83.8117 1.35522L82.0255 8.05817L81.9346 8.05922L79.971 1.3997L78.562 1.41602L81.322 10.1119Z" fill="#9DFC03"></path> <path d="M91.7268 10.2964L93.0599 10.4409L93.6548 4.9503C93.7821 3.77536 94.8016 3.01713 96.0669 3.15425C96.4228 3.19281 96.7826 3.30038 96.8705 3.33277L97.0174 1.97707C96.8661 1.94924 96.5171 1.9 96.3194 1.87857C95.2801 1.76594 94.3126 2.25548 93.9032 3.07981L93.8129 3.07002L93.9549 1.75951L92.667 1.61995L91.7268 10.2964Z" fill="#9DFC03"></path> <path d="M100.612 11.7788C102.347 12.1441 103.797 11.5437 104.469 10.3381L103.277 9.71533C102.756 10.5347 101.889 10.8167 100.861 10.6001C99.3206 10.2757 98.4682 9.05686 98.7923 7.21479L104.992 8.52036L105.109 7.96437C105.778 4.78413 104.118 3.29629 102.338 2.9216C100.025 2.4345 98.1069 3.93496 97.5542 6.55921C97.0016 9.18347 98.1438 11.2589 100.612 11.7788ZM99.0312 6.08058C99.4 4.77051 100.589 3.78414 102.09 4.10029C103.513 4.40004 104.2 5.65957 103.896 7.10513L99.0312 6.08058Z" fill="#9DFC03"></path> <path d="M109.453 14.1808C111.128 14.7597 112.642 14.345 113.459 13.2326L112.354 12.4659C111.735 13.2138 110.84 13.3855 109.846 13.0423C108.359 12.5283 107.665 11.2126 108.216 9.4254L114.204 11.4942L114.39 10.9572C115.451 7.88535 113.989 6.20192 112.27 5.60818C110.036 4.83632 107.946 6.08569 107.07 8.62048C106.194 11.1553 107.069 13.357 109.453 14.1808ZM108.595 8.32985C109.124 7.07603 110.427 6.24572 111.877 6.74669C113.252 7.22168 113.776 8.55707 113.294 9.95336L108.595 8.32985Z" fill="#9DFC03"></path> <path d="M121.22 6.15044L119.997 5.60059L115.225 16.2136L116.448 16.7635L121.22 6.15044Z" fill="#9DFC03"></path> <path d="M124.873 16.5426C125.358 16.8269 125.988 16.6624 126.272 16.1771C126.556 15.6917 126.392 15.062 125.906 14.7777C125.421 14.4934 124.791 14.6579 124.507 15.1432C124.223 15.6286 124.387 16.2583 124.873 16.5426Z" fill="#9DFC03"></path> <path d="M137.819 22.2864C138.253 21.0524 138.023 19.8175 136.664 18.7512C135.216 17.6147 133.498 17.5953 132.586 18.7575C131.842 19.7051 131.907 20.7817 132.936 22.0659L133.87 23.2321C134.436 23.9367 134.503 24.5235 134.131 24.9973C133.668 25.5873 132.664 25.579 131.68 24.8073C130.818 24.1303 130.568 23.3349 130.959 22.45L129.761 21.9146C129.092 23.2742 129.565 24.6496 130.969 25.751C132.564 27.0033 134.334 26.984 135.264 25.7995C136.015 24.843 135.889 23.7695 134.9 22.509L134.077 21.4589C133.421 20.6194 133.269 20.0591 133.683 19.5316C134.146 18.9416 135.108 19.0036 135.948 19.663C136.869 20.3856 136.849 21.1933 136.661 21.811L137.819 22.2864Z" fill="#9DFC03"></path> <path d="M140.173 26.4259C141.25 25.3492 142.547 25.4255 143.484 26.3616C144.376 27.2536 144.351 28.3544 143.371 29.3347L139.514 33.1916L140.462 34.1398L144.384 30.2186C145.971 28.6316 145.87 27.0446 144.609 25.7831C143.636 24.8108 142.676 24.6622 141.748 25.0117L141.668 24.9314L144.689 21.9101L143.741 20.9619L135.513 29.1901L136.461 30.1382L140.173 26.4259Z" fill="#9DFC03"></path> <path d="M144.018 38.7091C145.471 40.5738 147.865 40.7257 149.999 39.0638C152.15 37.3879 152.589 35.0295 151.137 33.1648C149.684 31.3 147.29 31.1482 145.139 32.8241C143.005 34.486 142.566 36.8444 144.018 38.7091ZM144.969 37.9689C143.866 36.5524 144.582 34.9573 145.963 33.8819C147.343 32.8066 149.083 32.4885 150.186 33.905C151.29 35.3214 150.555 36.9306 149.175 38.0059C147.794 39.0812 146.072 39.3854 144.969 37.9689Z" fill="#9DFC03"></path> <path d="M148.601 44.7511L149.255 45.8958L156.024 44.229L156.092 44.3474L151.216 49.3299L151.87 50.4746L160.767 48.456L160.068 47.2324L153.35 48.8964L153.305 48.8174L158.175 43.9167L157.465 42.6733L150.738 44.3683L150.693 44.2894L155.56 39.3379L154.862 38.1143L148.601 44.7511Z" fill="#9DFC03"></path> <path d="M153.458 53.8659L153.98 55.1009L159.067 52.9495C160.155 52.4891 161.314 53.0109 161.81 54.1831C161.949 54.5128 162.03 54.8795 162.045 54.9721L163.301 54.4409C163.251 54.2952 163.124 53.9663 163.047 53.7831C162.64 52.8203 161.741 52.2132 160.822 52.2566L160.787 52.1728L162.001 51.6593L161.496 50.4662L153.458 53.8659Z" fill="#9DFC03"></path> <path d="M156.525 62.516C157.047 64.2102 158.275 65.1875 159.655 65.1905L159.622 63.8454C158.653 63.7871 157.986 63.1661 157.676 62.1615C157.213 60.6573 157.866 59.3209 159.634 58.711L161.498 64.7657L162.041 64.5985C165.148 63.642 165.643 61.468 165.108 59.7304C164.413 57.4714 162.17 56.5211 159.607 57.3103C157.044 58.0996 155.783 60.105 156.525 62.516ZM160.742 58.3699C162.066 58.0571 163.506 58.6187 163.957 60.0848C164.385 61.475 163.617 62.6866 162.205 63.1213L160.742 58.3699Z" fill="#9DFC03"></path> <path d="M158.71 71.5269C159.016 73.2731 160.112 74.3964 161.481 74.5723L161.616 73.2335C160.662 73.0544 160.078 72.3547 159.897 71.3193C159.626 69.769 160.441 68.5248 162.271 68.1411L163.363 74.3816L163.922 74.2837C167.124 73.7237 167.888 71.6288 167.575 69.8379C167.167 67.5096 165.061 66.286 162.42 66.7481C159.778 67.2102 158.276 69.0419 158.71 71.5269ZM163.413 67.9414C164.766 67.7969 166.124 68.5343 166.388 70.0454C166.639 71.4782 165.725 72.5841 164.27 72.8386L163.413 67.9414Z" fill="#9DFC03"></path> <path d="M171.402 77.7365L171.289 76.4004L159.694 77.3865L159.808 78.7226L171.402 77.7365Z" fill="#9DFC03"></path> </svg> 